<svg
        xmlns="http://www.w3.org/2000/svg"
        xmlns:xlink="http://www.w3.org/1999/xlink"
        width="16px" height="15px">
    <path fill-rule="evenodd" fill="rgb(255, 255, 255)"
          d="M8.585,12.275 C8.585,13.812 6.884,14.340 5.821,14.340 C4.196,14.340 1.768,13.689 1.768,12.002 C1.768,10.175 4.511,9.717 6.049,9.717 C6.171,9.717 6.285,9.717 6.406,9.735 C7.224,10.359 8.585,11.045 8.585,12.275 L8.585,12.275 ZM7.338,4.317 C7.338,5.267 6.877,6.038 5.900,6.038 C4.117,6.038 2.993,4.185 2.993,2.832 C2.993,1.691 3.713,0.602 5.185,0.602 C6.627,0.602 7.338,3.002 7.338,4.317 L7.338,4.317 ZM6.278,-0.000 C5.828,-0.000 5.298,0.058 4.612,0.167 C2.566,0.501 1.188,2.013 1.188,3.827 C1.188,5.391 2.802,6.698 4.983,6.698 C5.241,6.698 5.500,6.676 5.679,6.643 C5.607,6.966 5.522,7.191 5.522,7.529 C5.522,8.103 5.743,8.616 5.978,9.057 C3.935,9.111 1.137,9.618 0.342,11.220 C0.148,11.589 -0.000,11.994 -0.000,12.407 C-0.000,14.426 2.235,15.000 4.666,15.000 C6.135,15.000 7.400,14.770 8.595,13.997 C9.380,13.347 9.889,12.530 9.889,11.519 C9.889,8.903 6.933,8.380 6.933,7.058 C6.933,5.750 9.186,5.594 9.186,3.509 C9.186,2.395 8.724,1.246 7.712,0.660 L8.330,0.660 L9.839,-0.000 L6.278,-0.000 L6.278,-0.000 ZM16.000,2.335 L13.634,2.335 L13.634,-0.000 L12.364,-0.000 L12.364,2.335 L9.954,2.335 L9.954,3.608 L12.364,3.608 L12.364,5.602 L13.634,5.602 L13.634,3.608 L16.000,3.608 L16.000,2.335 L16.000,2.335 Z"/>
</svg>